<svg width="371" height="363" viewBox="0 0 371 363" fill="none" xmlns="http://www.w3.org/2000/svg">
<path fill-rule="evenodd" clip-rule="evenodd" d="M99.9571 111.056C81.9259 121.41 58.9997 122.172 39.7041 111.065C20.4085 99.9588 9.60748 79.7833 9.58439 59.038C27.6171 48.6844 50.5433 47.9222 69.8389 59.0287C89.1345 70.1352 99.9355 90.3107 99.9571 111.056ZM127.242 59.8369C113.468 59.8225 100.07 52.6909 92.6957 39.952C85.3206 27.2116 85.8267 12.0758 92.7021 0.171038C106.477 0.185491 119.873 7.31658 127.248 20.0555C134.623 32.7958 134.116 47.9326 127.242 59.8369ZM69.1079 160.223C62.2035 172.111 49.3087 180.116 34.554 180.119C19.8008 180.121 6.90824 172.12 0.00828759 160.234C6.91125 148.346 19.8066 140.341 34.5613 140.338C49.3145 140.336 62.208 148.337 69.1079 160.223ZM99.9413 209.38C99.9125 230.124 89.1049 250.304 69.8059 261.417C50.506 272.53 27.5798 271.775 9.55239 261.427C9.58168 240.682 20.3888 220.503 39.6877 209.39C58.9876 198.277 81.9139 199.032 99.9413 209.38ZM185.327 258.528C203.33 268.919 215.449 288.335 215.445 310.555C215.441 332.775 203.316 352.195 185.31 362.593C167.308 352.202 155.189 332.785 155.192 310.565C155.196 288.346 167.322 268.925 185.327 258.528ZM127.209 260.59C134.08 272.492 134.581 287.63 127.202 300.371C119.823 313.113 106.424 320.248 92.6493 320.267C85.779 308.365 85.2767 293.228 92.6557 280.486C100.035 267.745 113.435 260.609 127.209 260.59ZM270.729 209.352C288.761 198.998 311.687 198.236 330.983 209.342C350.278 220.449 361.079 240.624 361.102 261.371C343.07 271.723 320.143 272.486 300.848 261.379C281.552 250.273 270.751 230.097 270.729 209.352ZM243.444 260.571C257.219 260.585 270.616 267.717 277.991 280.456C285.366 293.196 284.859 308.333 277.985 320.237C264.21 320.222 250.814 313.091 243.439 300.352C236.064 287.612 236.57 272.476 243.444 260.571ZM301.579 160.185C308.483 148.298 321.378 140.292 336.133 140.289C350.886 140.287 363.778 148.288 370.678 160.174C363.775 172.062 350.88 180.067 336.125 180.07C321.372 180.072 308.479 172.07 301.579 160.185ZM270.745 111.029C270.774 90.2839 281.582 70.1039 300.881 58.9905C320.181 47.8777 343.106 48.6338 361.134 58.9807C361.105 79.7257 350.298 99.9048 330.999 111.018C311.699 122.131 288.773 121.376 270.745 111.029ZM243.478 59.8181C236.607 47.9157 236.105 32.7792 243.484 20.0372C250.863 7.29435 264.263 0.159771 278.037 0.140342C284.908 12.0428 285.41 27.1793 278.03 39.9222C270.652 52.6642 257.252 59.7987 243.478 59.8181Z" fill="#A7E100"/>
</svg>
